<svg width="32" height="32" viewBox="0 0 32 32" fill="none" xmlns="http://www.w3.org/2000/svg">
<path d="M27.7085 23.7022C27.7085 23.938 27.5815 24.1557 27.376 24.2705L17.5818 29.8387L17.5213 29.869C17.5092 29.875 17.4911 29.875 17.479 29.869H17.4548C17.4427 29.8629 17.4306 29.8569 17.4185 29.8448C17.4125 29.8387 17.4065 29.8266 17.4004 29.8206C17.4004 29.8085 17.4004 29.8024 17.4004 29.7903C17.4004 29.7783 17.4004 29.7662 17.4004 29.7541L17.4185 29.7299C17.4427 29.6936 17.4729 29.6513 17.4971 29.615L22.8537 20.4617L27.3881 23.1339C27.5937 23.2428 27.7145 23.4664 27.7085 23.7022Z" fill="#FFB900"/>
<path d="M28.0714 9.6095L16.6388 29.1132L16.6146 29.1495C16.5844 29.1858 16.5602 29.2281 16.536 29.2644C16.4514 29.4216 16.4091 29.5969 16.403 29.7722C16.397 29.8206 16.397 29.875 16.403 29.9234C16.403 29.9475 16.409 29.9778 16.4151 30.002C16.4211 30.0383 16.4333 30.0745 16.4454 30.1108C16.4574 30.1471 16.4695 30.1773 16.4816 30.2136C15.7924 30.3285 15.0911 30.2256 14.4683 29.9173L14.3475 29.8569C14.2749 29.8267 14.2023 29.7904 14.1298 29.7541L4.43234 24.0771C3.74916 23.6841 3.51941 22.8135 3.91239 22.1304C3.91239 22.1243 3.91844 22.1183 3.91844 22.1183L9.4685 12.6626L13.8577 15.2139C15.1878 15.9817 16.8202 15.9878 18.1563 15.2381L27.9505 9.68808L27.9807 9.66993C28.017 9.6518 28.0472 9.63368 28.0714 9.6095Z" fill="#FFB900"/>
<path d="M28.205 8.62407C28.1688 8.62407 28.1265 8.62407 28.0902 8.62407H28.0055C27.9451 8.6301 27.8786 8.63616 27.8242 8.65428C27.7637 8.67244 27.7093 8.69056 27.6549 8.72081C27.6126 8.74496 27.5702 8.76915 27.534 8.79333C27.5158 8.80543 27.5038 8.81752 27.4796 8.82358L17.6853 14.3676C16.6515 14.948 15.388 14.9419 14.3602 14.3494L9.55376 11.5623L5.17659 8.99285C4.68083 8.70265 4.5055 8.06786 4.7957 7.57209C4.88639 7.41491 5.0194 7.28189 5.17659 7.19121L14.4085 1.92532C15.4484 1.33283 16.7301 1.34492 17.7579 1.9495L27.4674 7.66277L27.5461 7.7172C27.8846 7.91672 28.1204 8.24319 28.205 8.62407Z" fill="#FFB900"/>
</svg>
