<svg width="193" height="50" viewBox="0 0 193 50" fill="none" xmlns="http://www.w3.org/2000/svg">
<path d="M176.679 20.7403C178.607 18.4725 180.439 16.3174 182.272 14.1698C182.648 13.7267 183.01 13.2611 183.409 12.8331C184.325 11.8344 185.663 11.7143 186.704 12.5553C187.303 13.0359 187.871 13.5615 188.403 14.1172C189.408 15.161 189.379 16.4901 188.344 17.7066C185.936 20.545 183.513 23.376 181.016 26.3046C181.954 27.5135 182.892 28.715 183.823 29.9315C185.862 32.5972 187.901 35.2705 189.933 37.9437C190.295 38.4168 190.738 38.98 190.265 39.5132C189.962 39.8586 189.349 40.0613 188.861 40.0839C187.155 40.1514 185.441 40.0839 183.734 40.1289C183.143 40.1439 182.789 39.9262 182.441 39.4681C180.639 37.0877 178.799 34.7223 176.975 32.3569C176.805 32.1392 176.62 31.9364 176.413 31.6961C174.965 33.3932 173.539 35.0452 172.128 36.7122C170.274 38.9049 167.932 40.0463 165.088 40.0989C163.906 40.1214 162.716 40.0989 161.386 40.0989C161.704 37.7485 162.007 35.5258 162.317 33.228C163.174 33.228 164.009 33.3331 164.8 33.198C165.479 33.0778 166.292 32.845 166.735 32.372C168.582 30.352 170.318 28.2269 172.143 26.0718C170.599 24.0743 169.062 22.0844 167.526 20.0945C166.957 19.3661 166.366 18.6527 165.826 17.9018C165.065 16.8355 164.024 16.3474 162.768 16.3324C159.259 16.3024 155.742 16.2798 152.233 16.2798C150.726 16.2798 149.677 17.226 149.499 18.7203C149.396 19.5763 149.381 20.4474 149.315 21.4687C149.721 21.4687 150.039 21.4687 150.356 21.4687C153.408 21.4687 156.466 21.4611 159.517 21.4687C161.032 21.4762 161.638 22.1595 161.505 23.6613C161.431 24.4948 161.349 25.3284 161.29 26.1619C161.187 27.7613 160.648 28.2795 159.037 28.287C156.015 28.2945 152.986 28.287 149.965 28.287C149.632 28.287 149.3 28.287 148.864 28.287C148.783 29.556 148.65 30.75 148.643 31.9514C148.635 32.785 149.248 33.228 150.231 33.228C153.223 33.2355 156.215 33.228 159.207 33.228C159.539 33.228 159.864 33.228 160.286 33.228C159.983 35.4357 159.709 37.5533 159.392 39.6558C159.362 39.8285 159.044 40.0839 158.852 40.0914C155.277 40.1139 151.701 40.2415 148.133 40.0538C144.513 39.8661 141.462 35.8412 141.757 32.1542C142.104 27.7989 142.326 23.4285 142.607 19.0657C142.681 17.9544 142.681 16.8205 142.873 15.7317C143.515 12.0822 146.441 9.60419 150.09 9.58917C154.582 9.56664 159.067 9.57415 163.558 9.58917C166.536 9.59668 168.988 10.6254 170.813 13.171C172.653 15.7091 174.655 18.1346 176.679 20.7403Z" fill="black"/>
<path d="M118.412 40.0463C118.501 38.1916 118.575 36.4344 118.663 34.6773C118.885 30.5247 119.114 26.3797 119.343 22.2271C119.432 20.5826 119.565 18.9456 119.616 17.3011C119.727 13.4489 122.845 9.46152 127.905 9.46152C130.742 9.46152 133.587 9.41649 136.423 9.47654C139.364 9.52911 141.078 11.3463 140.93 14.35C140.723 18.5025 140.398 22.6401 140.117 26.7851C139.977 28.7976 139.785 30.8025 139.674 32.815C139.452 36.7348 136.268 39.9412 132.412 40.0538C131.097 40.0914 129.789 40.0463 128.474 40.0688C127.735 40.0764 127.41 39.791 127.499 39.0025C127.676 37.4031 127.831 35.7961 127.935 34.1892C127.987 33.4683 128.304 33.1905 128.977 33.2205C129.279 33.2355 129.59 33.2355 129.893 33.2205C131.629 33.1304 133.062 32.0191 133.158 30.1568C133.358 26.3196 133.727 22.4899 133.978 18.6602C134.089 16.9331 133.417 16.2798 131.732 16.2873C131.001 16.2873 130.269 16.2949 129.538 16.3174C127.868 16.3775 126.997 17.1734 126.864 18.863C126.524 23.1582 126.228 27.461 125.918 31.7562C125.733 34.2943 125.556 36.8249 125.334 39.363C125.312 39.6033 125.002 40.0163 124.825 40.0238C122.712 40.0613 120.614 40.0463 118.412 40.0463Z" fill="black"/>
<path d="M105.978 40.204C104.397 40.1139 102.779 40.204 101.243 39.9036C97.8813 39.2578 95.436 36.1565 95.532 32.6798C95.6502 28.6774 95.931 24.6825 96.1526 20.6877C96.2191 19.4787 96.2634 18.2697 96.3816 17.0683C96.7732 13.0584 99.3589 10.0922 103.282 9.71679C106.148 9.43895 109.089 9.50653 111.962 9.79939C115.346 10.1448 117.932 13.3362 117.836 16.7979C117.71 21.1082 117.437 25.4109 117.193 29.7212C117.112 31.2005 117.089 32.7173 116.75 34.1516C115.922 37.6734 112.93 40.0237 109.377 40.1214C108.246 40.1514 107.116 40.1289 105.986 40.1289C105.978 40.1439 105.978 40.1739 105.978 40.204ZM106.377 33.228C106.68 33.228 106.99 33.228 107.293 33.228C109.606 33.228 110.832 31.9965 110.906 29.6236C110.928 29.0003 110.972 28.3846 111.009 27.7688C111.157 25.043 111.349 22.3172 111.445 19.5913C111.504 17.7891 110.33 16.5351 108.564 16.3924C107.803 16.3324 107.035 16.3324 106.274 16.3624C104.449 16.4225 103.333 17.5113 103.215 19.3886C103.008 22.7001 102.883 26.0192 102.632 29.3307C102.395 32.3419 103.333 33.4682 106.377 33.228Z" fill="black"/>
<path d="M72.593 23.6989C72.6743 22.3548 72.8442 19.9669 72.9476 17.5865C73.1323 13.3363 75.8584 10.0698 80.0103 9.69433C82.8472 9.43901 85.758 9.49909 88.5949 9.79946C92.1632 10.1749 94.7341 13.8169 94.4903 17.4513C94.1579 22.4299 93.8919 27.4159 93.6703 32.402C93.4856 36.5771 90.198 39.9938 86.0904 40.0989C83.7707 40.159 81.4509 40.1515 79.1312 40.0914C75.0162 39.9863 71.7951 36.2242 72.135 32.0641C72.3271 29.6311 72.4083 27.1756 72.593 23.6989ZM88.0186 21.0857C88.0112 21.0857 88.0039 21.0857 87.9965 21.0857C88.0186 20.5601 88.0777 20.0344 88.063 19.5088C88.026 17.7441 86.9179 16.5126 85.1891 16.4C84.2213 16.3324 83.2314 16.3474 82.271 16.4451C81.0594 16.5652 80.0029 17.6165 79.9143 18.818C79.6335 22.7753 79.3824 26.7326 79.1829 30.6899C79.109 32.1542 80.195 33.2055 81.6356 33.2355C82.5813 33.2581 83.5269 33.2656 84.4725 33.2355C86.0239 33.1905 87.3242 31.944 87.435 30.3745C87.6566 27.2733 87.8339 24.1795 88.0186 21.0857Z" fill="black"/>
<path d="M58.2909 33.198C60.7806 33.198 63.0043 33.198 65.228 33.198C66.6613 33.198 68.1019 33.198 69.5351 33.2205C70.6063 33.2355 71.2417 33.9865 71.0718 35.0452C70.8797 36.2392 70.6359 37.4181 70.4364 38.6121C70.2813 39.5658 69.7124 40.0388 68.8037 40.0388C63.95 40.0539 59.0888 40.0839 54.2353 40.0238C52.1963 39.9938 50.5193 38.1916 50.5932 36.1191C50.6523 34.5121 50.9404 32.9202 51.1694 31.3282C51.2064 31.0504 51.4575 30.7951 51.6422 30.5548C55.2029 26.1018 58.7638 21.6564 62.3247 17.211C62.5315 16.9557 62.7088 16.6854 63.0117 16.2799C61.3051 16.2799 59.7611 16.2799 58.2171 16.2799C56.7838 16.2799 55.3432 16.3024 53.9102 16.2724C52.6174 16.2498 51.886 15.4013 52.0264 14.0872C52.1372 13.0734 52.285 12.0597 52.4623 11.0535C52.647 10.0247 53.3636 9.47656 54.5235 9.47656C57.5448 9.47656 60.5664 9.5066 63.5953 9.52162C64.8143 9.52913 66.0407 9.53664 67.2597 9.54415C70.3625 9.56667 71.9435 11.6467 71.4338 14.7705C71.1382 16.5577 70.3699 17.9769 69.2544 19.3436C65.7747 23.6163 62.3764 27.9641 58.9485 32.2819C58.7859 32.4996 58.6308 32.7249 58.2909 33.198Z" fill="black"/>
<path d="M36.0612 36.1028C36.0612 36.4426 35.8811 36.7564 35.5896 36.9219L21.6996 44.9484L21.6139 44.992C21.5967 45.0007 21.571 45.0007 21.5539 44.992H21.5196C21.5024 44.9833 21.4853 44.9746 21.4681 44.9572C21.4595 44.9484 21.451 44.931 21.4424 44.9223C21.4424 44.9049 21.4424 44.8961 21.4424 44.8787C21.4424 44.8613 21.4424 44.8439 21.4424 44.8265L21.4681 44.7916C21.5024 44.7393 21.5453 44.6783 21.5796 44.626L29.1763 31.4315L35.6068 35.2836C35.8983 35.4404 36.0698 35.7629 36.0612 36.1028Z" fill="#FFB900"/>
<path d="M36.5758 15.7882L20.3622 43.9027L20.3279 43.955C20.2851 44.0072 20.2508 44.0682 20.2165 44.1205C20.0964 44.3471 20.0364 44.5998 20.0278 44.8526C20.0193 44.9223 20.0193 45.0008 20.0278 45.0704C20.0278 45.1053 20.0364 45.1489 20.045 45.1838C20.0535 45.2361 20.0707 45.2883 20.0879 45.3406C20.105 45.3929 20.1222 45.4365 20.1393 45.4887C19.1619 45.6544 18.1673 45.5062 17.2841 45.0617L17.1127 44.9746C17.0098 44.931 16.9069 44.8787 16.804 44.8264L3.05122 36.6431C2.08235 36.0766 1.75653 34.8217 2.31384 33.8369C2.31384 33.8282 2.32242 33.8195 2.32242 33.8195L10.1934 20.1892L16.4182 23.8669C18.3045 24.9737 20.6194 24.9825 22.5143 23.9018L36.4043 15.9015L36.4472 15.8753C36.4986 15.8492 36.5415 15.8231 36.5758 15.7882Z" fill="#FFB900"/>
<path d="M36.7641 14.3677C36.7127 14.3677 36.6527 14.3677 36.6012 14.3677H36.4812C36.3955 14.3763 36.3011 14.3851 36.224 14.4112C36.1382 14.4374 36.0611 14.4635 35.9839 14.5071C35.9239 14.5419 35.8639 14.5768 35.8124 14.6117C35.7867 14.6291 35.7696 14.6465 35.7353 14.6553L21.8452 22.6469C20.3791 23.4835 18.5871 23.4748 17.1295 22.6207L10.3132 18.6031L4.10553 14.8993C3.40246 14.4809 3.1538 13.5659 3.56536 12.8512C3.69397 12.6247 3.88261 12.4329 4.10553 12.3022L17.1981 4.71147C18.6729 3.8574 20.4905 3.87483 21.9481 4.74633L35.7181 12.9819L35.8296 13.0604C36.3097 13.348 36.6441 13.8186 36.7641 14.3677Z" fill="#FFB900"/>
</svg>
